{"title":"Insidious 2011 XViD RC BDRip DTRG","uid":6479866,"size":1195923861,"categoryP":"video","categoryS":"movies","magnet":"?xt=urn:btih:eb4e64c4f05ca34f7f902043b9535d7d1fe192ff&amp;dn=Insidious+2011+XViD+RC+BDRip+DTRG&amp;tr=udp%3A%2F%2Ftracker.openbittorrent.com%3A80&amp;tr=udp%3A%2F%2Fopen.demonii.com%3A1337&amp;tr=udp%3A%2F%2Ftracker.coppersurfer.tk%3A6969&amp;tr=udp%3A%2F%2Fexodus.desync.com%3A6969","seeders":0,"leechers":1,"uploader":"SAFCukO09","files":3,"time":1308470585,"description":"Format : AVI\nFormat/Info : Audio Video Interleave\nFile size : 1.11 GiB\nDuration : 1h 42mn\nOverall bit rate : 1 558 Kbps\nWriting application : VirtualDubMod 1.5.10.3 | www.virtualdub-fr.org || (build 2550/release)\nWriting library : VirtualDub build 32842/release\n\nVideo\nID : 0\nFormat : MPEG-4 Visual\nFormat profile : Advanced Simple@L5\nFormat settings, BVOP : 2\nFormat settings, QPel : No\nFormat settings, GMC : No warppoints\nFormat settings, Matrix : Default (H.263)\nMuxing mode : Packed bitstream\nCodec ID : XVID\nCodec ID/Hint : XviD\nDuration : 1h 42mn\nBit rate : 1 100 Kbps\nWidth : 720 pixels\nHeight : 304 pixels\nDisplay aspect ratio : 2.35:1\nFrame rate : 23.976 fps\nColor space : YUV\nChroma subsampling : 4:2:0\nBit depth : 8 bits\nScan type : Progressive\nCompression mode : Lossy\nBits/(Pixel*Frame) : 0.210\nStream size : 806 MiB (71%)\nWriting library : XviD 64\n\nAudio\nID : 1\nFormat : AC-3\nFormat/Info : Audio Coding 3\nMode extension : CM (complete main)\nCodec ID : 2000\nDuration : 1h 42mn\nBit rate mode : Constant\nBit rate : 448 Kbps\nChannel(s) : 6 channels\nChannel positions : Front: L C R, Side: L R, LFE\nSampling rate : 48.0 KHz\nBit depth : 16 bits\nCompression mode : Lossy\nStream size : 328 MiB (29%)\nAlignment : Split accross interleaves\nInterleave, duration : 42 ms (1.00 video frame)\nInterleave, preload duration : 500 ms\n\n\n\n\n\n &lt;a href=&quot;\nhttp://www.imdb.com/title/tt1591095/&quot; rel=&quot;nofollow&quot; target=&quot;_NEW&quot;&gt;\nhttp://www.imdb.com/title/tt1591095/&lt;/a&gt;\n\n\n\n\n\n\n\nUsers: 7.1/10 (13,383 votes) 274 reviews | Critics: 215 reviews Metascore: 52/100 (based on 30 reviews from Metacritic.com)\n\nA family looks to prevent evil spirits from trapping their comatose child in a realm called The Further.\nDirector:\nJames Wan\nWriter:\nLeigh Whannell\nStars:\nPatrick Wilson, Rose Byrne and Ty Simpkin\n\n\n\n\n\n\n\n\n\n\n\n\n\n\n\n\n\nSource Used\n\n\nVIDEO: ..................... ASTRAL RUSSIAN 1080p Thanks\n\nAUDIO: ..................... ASTRAL RUSSIAN 1080p Thanks\n\nGreetz to IMAGiNE,Flawl3ss,DiLLoN,BDK,NOiR,TOXiC,THC,Ez,Rx,Boobyblue,TaRiQ786,LKRG,EP1C","torrent":{"xt":"urn:btih:eb4e64c4f05ca34f7f902043b9535d7d1fe192ff","amp;dn":"Insidious+2011+XViD+RC+BDRip+DTRG","amp;tr":["udp%3A%2F%2Ftracker.openbittorrent.com%3A80","udp%3A%2F%2Fopen.demonii.com%3A1337","udp%3A%2F%2Ftracker.coppersurfer.tk%3A6969","udp%3A%2F%2Fexodus.desync.com%3A6969"],"infoHash":"eb4e64c4f05ca34f7f902043b9535d7d1fe192ff","infoHashBuffer":{"type":"Buffer","data":[235,78,100,196,240,92,163,79,127,144,32,67,185,83,93,125,31,225,146,255]},"announce":[],"urlList":[]}}